# Blender 3.1.0
# www.blender.org
o Wagon
v -2.494355 3.136876 -3.199457
v 2.315150 0.098699 -3.045483
v -2.434318 3.226822 -3.157321
v -2.315150 0.098699 -3.045483
v 1.845475 1.282894 -2.594182
v -1.845475 1.282894 -2.594182
v -2.315150 0.098699 0.000000
v -2.434528 3.226822 0.000000
v -2.494355 3.136871 0.000000
v 2.315150 0.098699 0.000000
v 1.845475 1.282894 0.000000
v -1.845475 1.282894 0.000000
v 2.315150 0.692544 -3.203243
v -2.315150 0.692544 -3.203243
v 2.315150 1.485031 -3.203243
v -2.315150 1.485031 -3.203243
v 1.962823 0.692544 -4.272911
v -1.962823 0.692544 -4.272911
v 1.962823 1.485031 -4.272911
v -1.962823 1.485031 -4.272911
v 0.770268 0.692544 -5.139761
v -0.770268 0.692544 -5.139761
v 0.770268 1.485031 -5.139761
v -0.770268 1.485031 -5.139761
v 0.000000 0.110000 -5.670000
v 0.000000 2.110000 -5.670000
v 0.382683 0.110000 -5.593880
v 0.382683 2.110000 -5.593880
v 0.707107 0.110000 -5.377107
v 0.707107 2.110000 -5.377107
v 0.923880 0.110000 -5.052683
v 0.923880 2.110000 -5.052683
v 1.000000 0.110000 -4.670000
v 1.000000 2.110000 -4.670000
v 0.923880 0.110000 -4.287317
v 0.923880 2.110000 -4.287317
v 0.707107 0.110000 -3.962893
v 0.707107 2.110000 -3.962893
v 0.382683 0.110000 -3.746120
v 0.382683 2.110000 -3.746120
v -0.000000 0.110000 -3.670000
v -0.000000 2.110000 -3.670000
v -0.382683 0.110000 -3.746120
v -0.382683 2.110000 -3.746120
v -0.707107 0.110000 -3.962893
v -0.707107 2.110000 -3.962893
v -0.923880 0.110000 -4.287316
v -0.923880 2.110000 -4.287316
v -1.000000 0.110000 -4.670000
v -1.000000 2.110000 -4.670000
v -0.923879 0.110000 -5.052684
v -0.923879 2.110000 -5.052684
v -0.707107 0.110000 -5.377107
v -0.707107 2.110000 -5.377107
v -0.382683 0.110000 -5.593880
v -0.382683 2.110000 -5.593880
v 1.999740 3.106696 -2.839082
v 2.136802 3.221853 -2.934077
v -1.999740 3.106696 -2.839082
v -2.136802 3.221853 -2.934077
v 2.136358 3.221853 0.000000
v 1.999739 3.106688 0.000000
v -1.999739 3.106688 0.000000
v -2.136358 3.221853 0.000000
v 2.259427 3.221853 -3.010674
v 2.315150 3.171251 -3.050079
v -2.259427 3.221853 -3.010674
v -2.315150 3.171251 -3.050079
v 2.315150 3.171248 0.000000
v 2.259621 3.221853 0.000000
v -2.259621 3.221853 0.000000
v -2.315150 3.171248 0.000000
v 2.434318 3.226822 -3.157321
v 2.494355 3.136876 -3.199457
v 2.434528 3.226822 0.000000
v 2.494355 3.136871 0.000000
v -2.494355 3.136876 3.199457
v 2.315150 0.098699 3.045483
v -2.434318 3.226822 3.157321
v -2.315150 0.098699 3.045483
v 1.845475 1.282894 2.594182
v -1.845475 1.282894 2.594182
v 2.315150 0.692544 3.203243
v -2.315150 0.692544 3.203243
v 2.315150 1.485031 3.203243
v -2.315150 1.485031 3.203243
v 1.962823 0.692544 4.272911
v -1.962823 0.692544 4.272911
v 1.962823 1.485031 4.272911
v -1.962823 1.485031 4.272911
v 0.770268 0.692544 5.139761
v -0.770268 0.692544 5.139761
v 0.770268 1.485031 5.139761
v -0.770268 1.485031 5.139761
v 0.000000 0.110000 5.670000
v 0.000000 2.110000 5.670000
v 0.382683 0.110000 5.593880
v 0.382683 2.110000 5.593880
v 0.707107 0.110000 5.377107
v 0.707107 2.110000 5.377107
v 0.923880 0.110000 5.052683
v 0.923880 2.110000 5.052683
v 1.000000 0.110000 4.670000
v 1.000000 2.110000 4.670000
v 0.923880 0.110000 4.287317
v 0.923880 2.110000 4.287317
v 0.707107 0.110000 3.962893
v 0.707107 2.110000 3.962893
v 0.382683 0.110000 3.746120
v 0.382683 2.110000 3.746120
v -0.000000 0.110000 3.670000
v -0.000000 2.110000 3.670000
v -0.382683 0.110000 3.746120
v -0.382683 2.110000 3.746120
v -0.707107 0.110000 3.962893
v -0.707107 2.110000 3.962893
v -0.923880 0.110000 4.287316
v -0.923880 2.110000 4.287316
v -1.000000 0.110000 4.670000
v -1.000000 2.110000 4.670000
v -0.923879 0.110000 5.052684
v -0.923879 2.110000 5.052684
v -0.707107 0.110000 5.377107
v -0.707107 2.110000 5.377107
v -0.382683 0.110000 5.593880
v -0.382683 2.110000 5.593880
v 1.999740 3.106696 2.839082
v 2.136802 3.221853 2.934077
v -1.999740 3.106696 2.839082
v -2.136802 3.221853 2.934077
v 2.259427 3.221853 3.010674
v 2.315150 3.171251 3.050079
v -2.259427 3.221853 3.010674
v -2.315150 3.171251 3.050079
v 2.434318 3.226822 3.157321
v 2.494355 3.136876 3.199457
vn -0.8322 0.5545 -0.0000
vn -0.0000 1.0000 -0.0000
vn -0.9964 0.0843 -0.0000
vn 1.0000 -0.0000 -0.0000
vn -1.0000 -0.0000 -0.0000
vn 0.9964 0.0843 -0.0000
vn -0.0000 0.0905 -0.9959
vn -0.0000 -1.0000 -0.0000
vn -0.0000 -0.2568 -0.9665
vn -0.5880 -0.0000 -0.8089
vn 0.9498 -0.0000 -0.3128
vn -0.9498 -0.0000 -0.3128
vn -0.0000 -0.0000 -1.0000
vn 0.5880 -0.0000 -0.8089
vn 0.1951 -0.0000 -0.9808
vn 0.5556 -0.0000 -0.8315
vn 0.8315 -0.0000 -0.5556
vn 0.9808 -0.0000 -0.1951
vn 0.9808 -0.0000 0.1951
vn 0.8315 -0.0000 0.5556
vn 0.5556 -0.0000 0.8315
vn 0.1951 -0.0000 0.9808
vn -0.1951 -0.0000 0.9808
vn -0.5556 -0.0000 0.8315
vn -0.8315 -0.0000 0.5556
vn -0.9808 -0.0000 0.1951
vn -0.9808 -0.0000 -0.1951
vn -0.8315 -0.0000 -0.5556
vn -0.5556 -0.0000 -0.8315
vn -0.1951 -0.0000 -0.9808
vn 0.6439 0.7651 -0.0000
vn -0.0000 0.6363 0.7714
vn -0.6439 0.7651 -0.0000
vn -0.0000 0.1331 0.9911
vn -0.1884 -0.9821 -0.0000
vn -0.0000 0.9994 0.0339
vn -0.0000 -0.9745 0.2243
vn -0.0000 0.4242 -0.9056
vn 0.8322 0.5545 -0.0000
vn -0.0284 0.9996 -0.0000
vn 0.1884 -0.9821 -0.0000
vn 0.0284 0.9996 -0.0000
vn -0.0000 0.0905 0.9959
vn -0.0000 -0.2568 0.9665
vn -0.5880 -0.0000 0.8089
vn 0.9498 -0.0000 0.3128
vn -0.9498 -0.0000 0.3128
vn -0.0000 -0.0000 1.0000
vn 0.5880 -0.0000 0.8089
vn -0.0000 0.6363 -0.7714
vn -0.0000 0.1331 -0.9911
vn -0.0000 0.9994 -0.0339
vn -0.0000 -0.9745 -0.2243
vn -0.0000 0.4242 0.9056
vt 0.705617 0.530655
vt 0.705506 0.530660
vt 0.496589 0.504864
vt 0.705617 0.530655
vt 0.496589 0.498041
vt 0.489766 0.504864
vt 0.118569 0.439636
vt 0.125391 0.439636
vt 0.118569 0.432814
vt 0.489766 0.508275
vt 0.496589 0.494630
vt 0.705617 0.527244
vt 0.705506 0.527244
vt 0.496589 0.508275
vt 0.118569 0.443047
vt 0.125391 0.443047
vt 0.118569 0.429402
vt 0.857515 0.591834
vt 0.496589 0.504864
vt 0.496589 0.498041
vt 0.489766 0.504864
vt 0.857515 0.585011
vt 0.850692 0.591834
vt 0.864337 0.591834
vt 0.503411 0.504864
vt 0.503411 0.498041
vt 0.864337 0.585011
vt 0.857515 0.591834
vt 0.857515 0.585011
vt 0.850692 0.591834
vt 0.864337 0.591834
vt 0.864337 0.585011
vt 0.857515 0.591834
vt 0.857515 0.585011
vt 0.850692 0.591834
vt 0.864337 0.591834
vt 0.864337 0.585011
vt 0.704979 0.570091
vt 0.677689 0.570091
vt 0.698157 0.569818
vt 0.704979 0.583736
vt 0.684512 0.569818
vt 0.677689 0.583736
vt 0.703273 0.570091
vt 0.700663 0.569320
vt 0.703273 0.583736
vt 0.687018 0.569320
vt 0.701568 0.570091
vt 0.702788 0.567900
vt 0.701568 0.583736
vt 0.689143 0.567900
vt 0.699862 0.570091
vt 0.704208 0.565775
vt 0.699862 0.583736
vt 0.690563 0.565775
vt 0.698157 0.570091
vt 0.704706 0.563269
vt 0.698157 0.583736
vt 0.691061 0.563269
vt 0.696451 0.570091
vt 0.704208 0.560762
vt 0.696451 0.583736
vt 0.690563 0.560762
vt 0.694745 0.570091
vt 0.702788 0.558637
vt 0.694745 0.583736
vt 0.689143 0.558637
vt 0.693040 0.570091
vt 0.700663 0.557218
vt 0.693040 0.583736
vt 0.687018 0.557218
vt 0.691334 0.570091
vt 0.698157 0.556719
vt 0.691334 0.583736
vt 0.684512 0.556719
vt 0.689629 0.570091
vt 0.695650 0.557218
vt 0.689629 0.583736
vt 0.682005 0.557218
vt 0.687923 0.570091
vt 0.693525 0.558637
vt 0.687923 0.583736
vt 0.679881 0.558637
vt 0.686217 0.570091
vt 0.692106 0.560762
vt 0.686217 0.583736
vt 0.678461 0.560762
vt 0.684512 0.570091
vt 0.691607 0.563269
vt 0.684512 0.583736
vt 0.677962 0.563269
vt 0.682806 0.570091
vt 0.692106 0.565775
vt 0.682806 0.583736
vt 0.678461 0.565775
vt 0.681101 0.570091
vt 0.693525 0.567900
vt 0.679881 0.567900
vt 0.681101 0.583736
vt 0.679395 0.570091
vt 0.695650 0.569320
vt 0.682005 0.569320
vt 0.679395 0.583736
vt 0.705617 0.537477
vt 0.118569 0.439636
vt 0.294683 0.689675
vt 0.705617 0.537477
vt 0.705617 0.530655
vt 0.118569 0.432814
vt 0.294683 0.682853
vt 0.705617 0.530655
vt 0.294683 0.693086
vt 0.705617 0.540889
vt 0.118569 0.443047
vt 0.705617 0.540889
vt 0.118569 0.429402
vt 0.705617 0.527244
vt 0.294683 0.679441
vt 0.705617 0.527244
vt 0.294683 0.689675
vt 0.705617 0.537477
vt 0.503301 0.504858
vt 0.705506 0.537472
vt 0.705617 0.537477
vt 0.503411 0.504864
vt 0.294683 0.682853
vt 0.705617 0.530655
vt 0.503411 0.498041
vt 0.503301 0.498046
vt 0.705617 0.530655
vt 0.705506 0.530660
vt 0.503301 0.508275
vt 0.705506 0.540889
vt 0.294683 0.693086
vt 0.705617 0.540889
vt 0.294683 0.679441
vt 0.705617 0.527244
vt 0.503301 0.494630
vt 0.705506 0.527244
vt 0.705617 0.537477
vt 0.705617 0.537477
vt 0.705506 0.537472
vt 0.705617 0.540889
vt 0.705506 0.540889
vt 0.705617 0.530655
vt 0.705506 0.530660
vt 0.496589 0.504864
vt 0.705617 0.530655
vt 0.496589 0.498041
vt 0.489766 0.504864
vt 0.118569 0.439636
vt 0.125391 0.439636
vt 0.118569 0.432814
vt 0.857515 0.591834
vt 0.496589 0.504864
vt 0.496589 0.498041
vt 0.489766 0.504864
vt 0.857515 0.585011
vt 0.850692 0.591834
vt 0.864337 0.591834
vt 0.503411 0.504864
vt 0.503411 0.498041
vt 0.864337 0.585011
vt 0.857515 0.591834
vt 0.857515 0.585011
vt 0.850692 0.591834
vt 0.864337 0.591834
vt 0.864337 0.585011
vt 0.857515 0.591834
vt 0.857515 0.585011
vt 0.850692 0.591834
vt 0.864337 0.591834
vt 0.864337 0.585011
vt 0.704979 0.570091
vt 0.677689 0.570091
vt 0.698157 0.569818
vt 0.704979 0.583736
vt 0.684512 0.569818
vt 0.677689 0.583736
vt 0.703273 0.570091
vt 0.700663 0.569320
vt 0.703273 0.583736
vt 0.687018 0.569320
vt 0.701568 0.570091
vt 0.702788 0.567900
vt 0.701568 0.583736
vt 0.689143 0.567900
vt 0.699862 0.570091
vt 0.704208 0.565775
vt 0.699862 0.583736
vt 0.690563 0.565775
vt 0.698157 0.570091
vt 0.704706 0.563269
vt 0.698157 0.583736
vt 0.691061 0.563269
vt 0.696451 0.570091
vt 0.704208 0.560762
vt 0.696451 0.583736
vt 0.690563 0.560762
vt 0.694745 0.570091
vt 0.702788 0.558637
vt 0.694745 0.583736
vt 0.689143 0.558637
vt 0.693040 0.570091
vt 0.700663 0.557218
vt 0.693040 0.583736
vt 0.687018 0.557218
vt 0.691334 0.570091
vt 0.698157 0.556719
vt 0.691334 0.583736
vt 0.684512 0.556719
vt 0.689629 0.570091
vt 0.695650 0.557218
vt 0.689629 0.583736
vt 0.682005 0.557218
vt 0.687923 0.570091
vt 0.693525 0.558637
vt 0.687923 0.583736
vt 0.679881 0.558637
vt 0.686217 0.570091
vt 0.692106 0.560762
vt 0.686217 0.583736
vt 0.678461 0.560762
vt 0.684512 0.570091
vt 0.691607 0.563269
vt 0.684512 0.583736
vt 0.677962 0.563269
vt 0.682806 0.570091
vt 0.692106 0.565775
vt 0.682806 0.583736
vt 0.678461 0.565775
vt 0.681101 0.570091
vt 0.693525 0.567900
vt 0.679881 0.567900
vt 0.681101 0.583736
vt 0.679395 0.570091
vt 0.695650 0.569320
vt 0.682005 0.569320
vt 0.679395 0.583736
vt 0.705617 0.537477
vt 0.118569 0.439636
vt 0.294683 0.689675
vt 0.705617 0.537477
vt 0.705617 0.530655
vt 0.118569 0.432814
vt 0.294683 0.682853
vt 0.705617 0.530655
vt 0.294683 0.689675
vt 0.705617 0.537477
vt 0.503301 0.504858
vt 0.705506 0.537472
vt 0.705617 0.537477
vt 0.503411 0.504864
vt 0.294683 0.682853
vt 0.705617 0.530655
vt 0.503411 0.498041
vt 0.503301 0.498046
vt 0.705617 0.530655
vt 0.705506 0.530660
vt 0.705617 0.537477
vt 0.705617 0.537477
vt 0.705506 0.537472
s 0
f 8/12/1 3/4/1 1/2/1 9/13/1
f 67/126/2 71/136/2 64/118/2 60/110/2
f 70/134/2 65/120/2 58/106/2 61/112/2
f 62/114/3 57/105/3 5/7/3 11/15/3
f 2/3/4 66/122/4 69/132/4 10/14/4
f 4/5/5 68/128/5 16/26/5 14/20/5
f 5/7/2 6/8/2 12/16/2 11/15/2
f 59/109/6 63/116/6 12/17/6 6/9/6
f 68/128/7 66/125/7 15/25/7 16/26/7
f 4/6/8 2/3/8 10/14/8 7/10/8
f 16/27/2 15/24/2 19/31/2 20/32/2
f 7/11/5 72/138/5 68/129/5 4/5/5
f 2/3/9 4/6/9 14/21/9 13/19/9
f 65/120/2 67/126/2 60/110/2 58/106/2
f 18/29/10 20/32/10 24/37/10 22/34/10
f 15/24/11 13/18/11 17/28/11 19/31/11
f 14/22/12 16/27/12 20/32/12 18/29/12
f 13/18/8 14/23/8 18/30/8 17/28/8
f 22/34/13 24/37/13 23/36/13 21/33/13
f 17/28/8 18/30/8 22/35/8 21/33/8
f 20/32/2 19/31/2 23/36/2 24/37/2
f 19/31/14 17/28/14 21/33/14 23/36/14
f 25/38/15 26/41/15 28/46/15 27/44/15
f 27/44/16 28/46/16 30/50/16 29/48/16
f 29/48/17 30/50/17 32/54/17 31/52/17
f 31/52/18 32/54/18 34/58/18 33/56/18
f 33/56/19 34/58/19 36/62/19 35/60/19
f 35/60/20 36/62/20 38/66/20 37/64/20
f 37/64/21 38/66/21 40/70/21 39/68/21
f 39/68/22 40/70/22 42/74/22 41/72/22
f 41/72/23 42/74/23 44/78/23 43/76/23
f 43/76/24 44/78/24 46/82/24 45/80/24
f 45/80/25 46/82/25 48/86/25 47/84/25
f 47/84/26 48/86/26 50/90/26 49/88/26
f 49/88/27 50/90/27 52/94/27 51/92/27
f 51/92/28 52/94/28 54/99/28 53/96/28
f 28/47/2 26/42/2 56/102/2 54/98/2 52/95/2 50/91/2 48/87/2 46/83/2 44/79/2 42/75/2 40/71/2 38/67/2 36/63/2 34/59/2 32/55/2 30/51/2
f 53/96/29 54/99/29 56/103/29 55/100/29
f 55/100/30 56/103/30 26/43/30 25/39/30
f 25/40/8 27/45/8 29/49/8 31/53/8 33/57/8 35/61/8 37/65/8 39/69/8 41/73/8 43/77/8 45/81/8 47/85/8 49/89/8 51/93/8 53/97/8 55/101/8
f 63/117/31 59/108/31 60/111/31 64/119/31
f 59/108/32 57/104/32 58/107/32 60/111/32
f 57/104/33 62/115/33 61/113/33 58/107/33
f 57/105/34 59/109/34 6/9/34 5/7/34
f 69/133/35 66/123/35 74/142/35 76/144/35
f 67/127/36 65/121/36 73/140/36 3/4/36
f 66/124/37 68/130/37 1/1/37 74/141/37
f 66/125/4 2/3/4 13/19/4 15/25/4
f 3/4/38 73/140/38 74/141/38 1/1/38
f 73/140/39 75/143/39 76/144/39 74/142/39
f 65/121/40 70/135/40 75/143/40 73/140/40
f 68/131/41 72/139/41 9/13/41 1/2/41
f 71/137/42 67/127/42 3/4/42 8/12/42
f 8/12/1 9/13/1 77/146/1 79/148/1
f 133/254/2 130/246/2 64/118/2 71/136/2
f 70/134/2 61/112/2 128/242/2 131/248/2
f 62/114/3 11/15/3 81/151/3 127/241/3
f 78/147/4 10/14/4 69/132/4 132/250/4
f 80/149/5 84/156/5 86/162/5 134/256/5
f 81/151/2 11/15/2 12/16/2 82/152/2
f 129/245/6 82/153/6 12/17/6 63/116/6
f 134/256/43 86/162/43 85/161/43 132/253/43
f 80/150/8 7/10/8 10/14/8 78/147/8
f 86/163/2 90/168/2 89/167/2 85/160/2
f 7/11/5 80/149/5 134/257/5 72/138/5
f 78/147/44 83/155/44 84/157/44 80/150/44
f 131/248/2 128/242/2 130/246/2 133/254/2
f 88/165/45 92/170/45 94/173/45 90/168/45
f 85/160/46 89/167/46 87/164/46 83/154/46
f 84/158/47 88/165/47 90/168/47 86/163/47
f 83/154/8 87/164/8 88/166/8 84/159/8
f 92/170/48 91/169/48 93/172/48 94/173/48
f 87/164/8 91/169/8 92/171/8 88/166/8
f 90/168/2 94/173/2 93/172/2 89/167/2
f 89/167/49 93/172/49 91/169/49 87/164/49
f 95/174/22 97/180/22 98/182/22 96/177/22
f 97/180/21 99/184/21 100/186/21 98/182/21
f 99/184/20 101/188/20 102/190/20 100/186/20
f 101/188/19 103/192/19 104/194/19 102/190/19
f 103/192/18 105/196/18 106/198/18 104/194/18
f 105/196/17 107/200/17 108/202/17 106/198/17
f 107/200/16 109/204/16 110/206/16 108/202/16
f 109/204/15 111/208/15 112/210/15 110/206/15
f 111/208/30 113/212/30 114/214/30 112/210/30
f 113/212/29 115/216/29 116/218/29 114/214/29
f 115/216/28 117/220/28 118/222/28 116/218/28
f 117/220/27 119/224/27 120/226/27 118/222/27
f 119/224/26 121/228/26 122/230/26 120/226/26
f 121/228/25 123/232/25 124/235/25 122/230/25
f 98/183/2 100/187/2 102/191/2 104/195/2 106/199/2 108/203/2 110/207/2 112/211/2 114/215/2 116/219/2 118/223/2 120/227/2 122/231/2 124/234/2 126/238/2 96/178/2
f 123/232/24 125/236/24 126/239/24 124/235/24
f 125/236/23 95/175/23 96/179/23 126/239/23
f 95/176/8 125/237/8 123/233/8 121/229/8 119/225/8 117/221/8 115/217/8 113/213/8 111/209/8 109/205/8 107/201/8 105/197/8 103/193/8 101/189/8 99/185/8 97/181/8
f 63/117/31 64/119/31 130/247/31 129/244/31
f 129/244/50 130/247/50 128/243/50 127/240/50
f 127/240/33 128/243/33 61/113/33 62/115/33
f 127/241/51 81/151/51 82/153/51 129/245/51
f 69/133/35 76/144/35 136/262/35 132/251/35
f 133/255/52 79/148/52 135/260/52 131/249/52
f 132/252/53 136/261/53 77/145/53 134/258/53
f 132/253/4 85/161/4 83/155/4 78/147/4
f 79/148/54 77/145/54 136/261/54 135/260/54
f 135/260/39 136/262/39 76/144/39 75/143/39
f 131/249/40 135/260/40 75/143/40 70/135/40
f 134/259/41 77/146/41 9/13/41 72/139/41
f 71/137/42 8/12/42 79/148/42 133/255/42
