# Blender 3.1.0
# www.blender.org
o meeple
v 0.982320 4.706780 -1.000000
v 0.982320 4.706780 1.000000
v 1.289877 3.084590 -1.000000
v 1.289877 3.084590 1.000000
v 0.000000 1.290592 -1.000000
v 0.000000 1.290592 1.000000
v 0.827966 5.447985 -1.000000
v 0.827966 5.447985 1.000000
v 2.259187 4.159536 -1.000000
v 2.389003 3.181662 -1.000000
v 2.389003 3.181662 1.000000
v 2.259187 4.159536 1.000000
v 2.032482 -0.103066 -1.000000
v 0.998104 -0.103066 -1.000000
v 0.998104 -0.103066 1.000000
v 2.032482 -0.103066 1.000000
v 0.000000 6.067180 1.000000
v 0.460069 5.964579 1.000000
v 0.460069 5.964579 -1.000000
v 0.000000 6.067180 -1.000000
v 2.598623 3.844485 1.000000
v 2.598623 3.412443 1.000000
v 2.598623 3.412443 -1.000000
v 2.598623 3.844485 -1.000000
v -0.982320 4.706780 -1.000000
v -0.982320 4.706780 1.000000
v -1.289877 3.084590 -1.000000
v -1.289877 3.084590 1.000000
v -0.827966 5.447985 -1.000000
v -0.827966 5.447985 1.000000
v -2.259187 4.159536 -1.000000
v -2.389003 3.181662 -1.000000
v -2.389003 3.181662 1.000000
v -2.259187 4.159536 1.000000
v -2.032482 -0.103066 -1.000000
v -0.998104 -0.103066 -1.000000
v -0.998104 -0.103066 1.000000
v -2.032482 -0.103066 1.000000
v -0.460069 5.964579 1.000000
v -0.460069 5.964579 -1.000000
v -2.598623 3.844485 1.000000
v -2.598623 3.412443 1.000000
v -2.598623 3.412443 -1.000000
v -2.598623 3.844485 -1.000000
vn 0.0880 -0.9961 -0.0000
vn 0.9739 0.2269 -0.0000
vn -0.8130 -0.5823 -0.0000
vn 0.3939 0.9191 -0.0000
vn 0.9790 0.2039 -0.0000
vn 0.8146 0.5801 -0.0000
vn 0.7402 -0.6724 -0.0000
vn -0.0000 -1.0000 -0.0000
vn 0.2177 0.9760 -0.0000
vn 1.0000 -0.0000 -0.0000
vn 0.6803 0.7329 -0.0000
vn -0.0880 -0.9961 -0.0000
vn -0.9739 0.2269 -0.0000
vn 0.8130 -0.5823 -0.0000
vn -0.3939 0.9191 -0.0000
vn -0.9790 0.2039 -0.0000
vn -0.8146 0.5801 -0.0000
vn -0.7402 -0.6724 -0.0000
vn -0.2177 0.9760 -0.0000
vn -0.0000 -0.0000 1.0000
vn -1.0000 -0.0000 -0.0000
vn -0.6803 0.7329 -0.0000
vn -0.0000 -0.0000 -1.0000
vt 0.189744 0.734122
vt 0.339730 0.129064
vt 0.379487 0.734122
vt 0.646413 0.129064
vt 0.647690 1.000000
vt 0.368909 0.282963
vt 0.569231 0.585382
vt 0.647690 0.810256
vt 0.617235 0.282963
vt 0.758974 0.585382
vt 0.758974 0.809402
vt 0.000000 0.000000
vt 0.758974 0.585382
vt 0.948718 0.585382
vt 0.758974 0.999145
vt 0.189744 0.683286
vt 0.325087 0.058744
vt 0.379487 0.683286
vt 0.661057 0.058744
vt 0.189744 0.863879
vt 0.460869 0.180982
vt 0.575003 1.000000
vt 0.473185 0.273754
vt 0.575003 0.810256
vt 0.512959 0.273754
vt 0.379487 0.863879
vt 0.525275 0.180982
vt 0.982994 0.809402
vt 0.569231 0.810257
vt 0.921331 0.809402
vt 0.921331 0.999145
vt 0.982994 0.999145
vt 0.758974 0.810257
vt 0.379487 0.585382
vt 0.189744 0.907203
vt 0.739608 0.000000
vt 0.379487 0.627210
vt 0.695960 0.009734
vt 0.189744 0.627210
vt 0.290184 0.009734
vt 0.189744 0.585382
vt 0.000000 0.907203
vt 0.246536 0.000000
vt 0.513588 0.810256
vt 0.379487 0.907203
vt 0.493072 0.210871
vt 0.545475 0.810256
vt 0.493072 0.251860
vt 0.545475 1.000000
vt 0.493072 0.251860
vt 0.513588 1.000000
vt 0.189744 0.907203
vt 0.493072 0.210871
vt 0.000000 0.758463
vt 0.153342 0.129064
vt 0.189744 0.758463
vt 0.832802 0.129064
vt 0.379487 1.000000
vt 0.569231 0.585382
vt 0.124163 0.282963
vt 0.379487 0.810256
vt 0.861980 0.282963
vt 0.379487 0.585382
vt 0.000000 0.809299
vt 0.167985 0.058744
vt 0.189744 0.809299
vt 0.818158 0.058744
vt 0.000000 0.628706
vt 0.032203 0.180982
vt 0.452174 1.000000
vt 0.019887 0.273754
vt 0.452174 0.810256
vt 0.966257 0.273754
vt 0.189744 0.628706
vt 0.953941 0.180982
vt 0.758974 0.809401
vt 0.569231 0.810257
vt 0.758974 0.747739
vt 0.948718 0.747739
vt 0.948718 0.809401
vt 0.379487 0.810257
vt 0.189744 0.865375
vt 0.783255 0.009734
vt 0.000000 0.865375
vt 0.202888 0.009734
vt 0.513588 0.810256
vt 0.189744 0.585382
vt 0.986144 0.210871
vt 0.481702 0.810256
vt 0.986144 0.251860
vt 0.481702 1.000000
vt 0.000000 0.251860
vt 0.513588 1.000000
vt 0.000000 0.585382
vt 0.000000 0.210871
s 0
f 10/22/1 11/24/1 4/8/1 3/5/1
f 3/7/2 4/10/2 16/33/2 13/29/2
f 14/30/3 15/31/3 6/15/3 5/11/3
f 1/1/4 2/3/4 12/26/4 9/20/4
f 7/16/5 8/18/5 2/3/5 1/1/5
f 8/18/6 7/16/6 19/39/6 18/37/6
f 11/24/7 10/22/7 23/49/7 22/47/7
f 15/31/8 14/30/8 13/28/8 16/32/8
f 20/41/9 17/34/9 18/37/9 19/39/9
f 22/47/10 23/49/10 24/51/10 21/44/10
f 9/20/11 12/26/11 21/45/11 24/52/11
f 32/70/12 27/58/12 28/61/12 33/72/12
f 27/59/13 35/77/13 38/81/13 28/63/13
f 36/78/14 5/13/14 6/14/14 37/79/14
f 25/54/15 31/68/15 34/74/15 26/56/15
f 29/64/16 25/54/16 26/56/16 30/66/16
f 30/66/17 39/82/17 40/84/17 29/64/17
f 33/72/18 42/89/18 43/91/18 32/70/18
f 37/79/8 38/80/8 35/76/8 36/78/8
f 20/42/19 40/84/19 39/82/19 17/35/19
f 2/4/20 8/19/20 18/38/20 17/36/20 39/83/20 30/67/20 26/57/20
f 42/89/21 41/86/21 44/93/21 43/91/21
f 31/68/22 44/94/22 41/87/22 34/74/22
f 7/17/23 1/2/23 25/55/23 29/65/23 40/85/23 20/43/23 19/40/23
f 9/21/23 24/53/23 23/50/23 10/23/23 3/6/23 27/60/23 32/71/23 43/92/23 44/95/23 31/69/23 25/55/23 1/2/23
f 2/4/20 26/57/20 34/75/20 41/88/20 42/90/20 33/73/20 28/62/20 4/9/20 11/25/20 22/48/20 21/46/20 12/27/20
f 16/33/20 4/10/20 6/15/20 15/31/20
f 38/81/20 37/79/20 6/14/20 28/63/20
f 4/10/20 28/63/20 6/15/20
f 3/6/23 5/12/23 27/60/23
f 13/29/23 14/30/23 5/12/23 3/7/23
f 36/78/23 35/77/23 27/60/23 5/13/23
